<?xml version="1.0" encoding="iso-8859-1"?>
<!-- Uploaded to: SVG Repo, www.svgrepo.com, Generator: SVG Repo Mixer Tools -->
<svg fill="#000000" height="800px" width="800px" version="1.1" id="Capa_1" xmlns="http://www.w3.org/2000/svg" xmlns:xlink="http://www.w3.org/1999/xlink" 
	 viewBox="0 0 490 490" xml:space="preserve">
<path d="M357.767,40.709c-0.208,6.848,2.693,12.863,7.371,18.019l-39.191,17.391c-3.141-0.651-6.365-0.997-9.648-0.997H173.701
	c-2.346,0-4.659,0.185-6.937,0.519l-37.608-16.688c4.805-5.205,7.577-11.292,7.577-18.243C136.733,13.984,95.835,0,55.426,0
	C22.885,0,0,9.927,0,9.927v61.566c0,0,22.138,9.926,55.426,9.926c18.85,0,37.805-3.044,52.667-9.004l33.78,14.99
	c-1.615,1.44-22.016,17.826-17.796,49.527l30.381,226.562c3.154,23.512,20.408,41.861,41.621,45.608v31.967
	c0,26.98,21.95,48.931,48.921,48.931c26.98,0,48.93-21.951,48.93-48.931v-31.968c21.209-3.751,38.467-22.099,41.621-45.607
	l30.381-226.562c2.199-16.432-2.446-33.8-16.566-48.397l36.666-16.27c14.917,6.059,34.032,9.155,53.041,9.155
	c25.642,0,50.927-8.104,50.927-8.104V8.104C459.448-6.022,359.115-3.764,357.767,40.709z M20.851,56.398V25.02
	c10.253-2.708,22.255-4.169,34.575-4.169c37.507,0,60.456,12.859,60.456,19.858c0,7-22.949,19.859-60.456,19.859
	C43.107,60.568,31.104,59.107,20.851,56.398z M316.298,95.973c22.958,0,31.353,24.901,28.966,38.19l-7.635,56.938h-40.111
	c-4.56-26.828-26.364-47.225-52.519-47.225c-26.147,0-47.949,20.397-52.509,47.225h-40.11l-7.635-56.938
	c-1.995-15.768,7.163-38.19,28.955-38.19H316.298z M277.559,201.526c0,20.291-14.61,36.795-32.559,36.795
	c-17.95,0-32.549-16.504-32.549-36.795c0-20.291,14.6-36.8,32.549-36.8C262.949,164.726,277.559,181.235,277.559,201.526z
	 M273.079,441.069c0,15.485-12.594,28.08-28.079,28.08c-15.476,0-28.07-12.595-28.07-28.08V357.71
	c0-15.486,12.594-28.08,28.07-28.08c15.485,0,28.079,12.594,28.079,28.08V441.069z M314.883,360.725
	c-1.743,13.004-10.202,23.42-20.953,26.948V357.71c0-26.98-21.95-48.931-48.93-48.931c-26.971,0-48.921,21.951-48.921,48.931v29.964
	c-10.749-3.526-19.21-13.944-20.953-26.95l-19.949-148.773h37.314c4.56,26.824,26.363,47.22,52.509,47.22
	c26.155,0,47.958-20.396,52.518-47.22h37.315L314.883,360.725z M469.149,57.478c-9.225,2.032-19.467,3.09-30.076,3.09
	c-37.508,0-60.456-12.859-60.456-19.859c0-6.999,22.947-19.858,60.456-19.858c10.609,0,20.851,1.059,30.076,3.09V57.478z"/>
</svg>